<?xml version="1.0" ?><svg viewBox="0 0 512 512" xmlns="http://www.w3.org/2000/svg"><g id="Cash_on_delivery"><path d="M444.3906,315.8662a75.7,75.7,0,0,1-61.3862,61.9231l9.4214-20.6155L378.7832,350.94l-16.3,35.666a7.5,7.5,0,0,0,2.8643,9.4883l33.3115,20.6894,7.914-12.7422L387.4917,392.19a90.7727,90.7727,0,0,0,72.9673-89.5745l-15,.0918A76.2672,76.2672,0,0,1,444.3906,315.8662Z"/><path d="M185.17,198.6885a75.6951,75.6951,0,0,1,61.7984-61.9895l-9.8345,21.5158,13.6426,6.2364,16.3017-35.6651a7.4993,7.4993,0,0,0-2.8642-9.4892L230.9014,98.6074,222.9873,111.35l18.06,11.2171A90.7863,90.7863,0,0,0,169.1016,211.94l15-.0918A76.3531,76.3531,0,0,1,185.17,198.6885Z"/><polygon points="188.713 441.221 226.071 429.199 226.071 419.623 188.713 431.645 188.713 441.221"/><polygon points="188.713 425.929 226.071 413.907 226.071 404.33 188.713 416.353 188.713 425.929"/><path d="M481.7734,120.6357a78.6045,78.6045,0,1,0-150.93,30.77A78.602,78.602,0,1,0,475.4971,151.4,78.1623,78.1623,0,0,0,481.7734,120.6357ZM403.1689,184.24a63.6045,63.6045,0,1,1,63.6045-63.6045A63.677,63.677,0,0,1,403.1689,184.24Z"/><path d="M405.8652,109.5527h-5.3545a5.5327,5.5327,0,0,1,0-11.0654h24.3965v-12.5H409.42V75.3018h-12.5V86.3484a18.0328,18.0328,0,0,0,3.5908,35.7043h5.3545a6.9644,6.9644,0,1,1,0,13.9287H381.4326v12.5h14.0723V159.167h12.5v-10.81a19.4611,19.4611,0,0,0-2.14-38.8047Z"/><path d="M309.5625,307.5774l-.0078-.01a19.2033,19.2033,0,0,0-8.7276-5.5625L182.26,266.168a31.4828,31.4828,0,0,0-18.375-.002L45.3037,302.0068a19.2007,19.2007,0,0,0-8.72,5.5606c-.0171.0193-.0308.041-.0474.06l-.001-.0022a19.1226,19.1226,0,0,0-4.81,12.6722v94.2812a19.0011,19.0011,0,0,0,13.5625,18.2832l118.5439,36.002a31.6294,31.6294,0,0,0,18.4551.0039l118.6563-36.0391a19,19,0,0,0,13.4609-18.25V320.2979a19.1164,19.1164,0,0,0-4.835-12.7139ZM167.0654,457.3057,48.7734,421.38a7.07,7.07,0,0,1-5.0478-6.8008V320.2979a7.0476,7.0476,0,0,1,.1509-1.4148c-.2-.11-.3755-.2373-.564-.3558l123.7529,37.5892ZM58.4268,310.5771l108.9394-32.9277a19.5637,19.5637,0,0,1,11.415.0029l108.93,32.9239L252.832,321.17l-53.24-16.0469a3.2336,3.2336,0,0,0-1.8628-.0173l-27.9634,7.94a1.7243,1.7243,0,0,0-.0259,3.3081l49.7344,14.9483-46.4087,14.0957Zm243.9775,104.002a7.0517,7.0517,0,0,1-4.9736,6.7754l-118.3653,35.95V356.1167l50.5962-15.3674v37.2065a3.331,3.331,0,0,0,4.2134,3.2124l26.8662-7.4a3.3277,3.3277,0,0,0,2.4463-3.2124V330.5667l39.0381-11.857a7.1317,7.1317,0,0,1,.1787,1.5882Z"/></g></svg>